HIERARCHY
ROOT Hips
{
	OFFSET	0.00	0.00	0.00
	CHANNELS 6 Xposition Yposition Zposition Zrotation Xrotation Yrotation
	JOINT Spine
	{
		OFFSET	 0.00	0.01	 0.00
		CHANNELS 3 Zrotation Xrotation Yrotation
		JOINT Spine1
		{
			OFFSET	 0.00	 2.45913012437421	 0.00
			CHANNELS 3 Zrotation Xrotation Yrotation
            JOINT Neck
            {
                OFFSET	 0.00	 2.48462964506057	 0.00
                CHANNELS 3 Zrotation Xrotation Yrotation
                JOINT Head
                {
                    OFFSET	 0.00	 0.927524780924562	 0.00
                    CHANNELS 3 Zrotation Xrotation Yrotation
                    End Site 
                    {
                        OFFSET	 0.00	 1.14999962169752	 0.00
                    }
                }
            }
			JOINT LeftShoulder
			{
				OFFSET	 0.00	 2.48462964506057	 0.00
				CHANNELS 3 Zrotation Xrotation Yrotation
				JOINT LeftUpArm
				{
					OFFSET	 0.00	 1.24881979654096	 0.00
					CHANNELS 3 Zrotation Xrotation Yrotation
					JOINT LeftForeArm
					{
						OFFSET	 0.00	2.59758046908119	 0.00
						CHANNELS 3 Zrotation Xrotation Yrotation
						JOINT LeftHand
						{
							OFFSET	 0.00	2.45542024364365	 0.00
							CHANNELS 3 Zrotation Xrotation Yrotation
							JOINT LeftHandThumb 
							{
								OFFSET	 0.00	0.00	 0.00
								CHANNELS 3 Zrotation Xrotation Yrotation
								End Site
								{
									OFFSET	 0.00	0.00	1.00000003353624
								}
							}
							JOINT L_Wrist_End 
							{
								OFFSET	 0.00	0.99999967115358	 0.00
								CHANNELS 3 Zrotation Xrotation Yrotation
								End Site 
								{
									OFFSET	 0.00	 0.00	 0.00
								}
							}
						}
					}
				}
			}
			JOINT RightShoulder
			{
				OFFSET	 0.00	 2.48462964506057	 0.00
				CHANNELS 3 Zrotation Xrotation Yrotation
				JOINT RightUpArm
				{
					OFFSET	 0.00	 1.24881979654096	 0.00
					CHANNELS 3 Zrotation Xrotation Yrotation
					JOINT RightForeArm
					{
						OFFSET	 0.00	2.59758046908119	 0.00
						CHANNELS 3 Zrotation Xrotation Yrotation
						JOINT RightHand
						{
							OFFSET	 0.00	2.45542024364365	 0.00
							CHANNELS 3 Zrotation Xrotation Yrotation
							JOINT RightHandThumb 
							{
								OFFSET	 0.00	0.00	 0.00
								CHANNELS 3 Zrotation Xrotation Yrotation
								End Site
								{
									OFFSET	 0.00	0.00	1.00000003353624
								}
							}
							JOINT R_Wrist_End 
							{
								OFFSET	 0.00	0.99999967115358	 0.00
								CHANNELS 3 Zrotation Xrotation Yrotation
								End Site 
								{
									OFFSET	 0.00	 0.00	 0.00
								}
							}
						}
					}
				}
			}
		}
	}
	JOINT LeftUpLeg
	{
		OFFSET	 1.2719394002717	 0.00	 0.00
		CHANNELS 3 Zrotation Xrotation Yrotation
		JOINT LeftLowLeg
		{
			OFFSET	 0.00	-4.3429100912261	 0.00
			CHANNELS 3 Zrotation Xrotation Yrotation
			JOINT LeftFoot
			{
				OFFSET	 0.00	-4.48767017425826	 0.00
				CHANNELS 3 Zrotation Xrotation Yrotation
				JOINT LeftToeBase
                {
                    OFFSET	 0.00	0.00	 1.51507020887566
                    CHANNELS 3 Zrotation Xrotation Yrotation
                    End Site 
                    {
                        OFFSET	 0.00	0.00	 0.75000010571191
                    }
                }
			}
		}
	}
	JOINT RightUpLeg
	{
		OFFSET	 -1.2719393604653	 0.00	 0.00
		CHANNELS 3 Zrotation Xrotation Yrotation
		JOINT RightLowLeg
		{
			OFFSET	 0.00	-4.3429100912261	 0.00
			CHANNELS 3 Zrotation Xrotation Yrotation
			JOINT RightFoot
			{
				OFFSET	 0.00	-4.48767017425826	 0.00
				CHANNELS 3 Zrotation Xrotation Yrotation
				JOINT RightToeBase
                {
                    OFFSET	 0.00	0.00	 1.51507020887566
                    CHANNELS 3 Zrotation Xrotation Yrotation
                    End Site 
                    {
                        OFFSET	 0.00	0.00	 0.749999965609858
                    }
                }   
			}
		}
	}
}
MOTION 
Frames:	18 
Frame Time: 0.02 
  1.1309200286865235 -3.013269958496094 6.611810302734375 6.01235 42.8913 354.576 6.90325 -28.2741 8.33735 -9.17601 42.7678 -0.0619316 32.3246 51.2281 -8.90711 -106.812 -66.6999 -824.685 -108.3571 10.3391 358.909 -19.1348 31.0201 29.8318 0.0 19.6978 0.0 19.3804 -2.03208 19.8752 0.0 0.0 0.0 0.0 0.0 0.0 119.0452 7.62865 -359.744 25.6562 32.6643 -380.205 0.0 19.759 0.0 6.4041 -9.738 -19.3346 0.0 0.0 0.0 0.0 0.0 0.0 -0.943207 -27.2627 -365.358 0.0 42.5502 0.0 -37.2642 28.8769 15.3048 0.0 -21.06464 0.0 -0.70789 -30.3336 11.4475 0.0 48.2476 0.0 46.7119 29.1094 -15.5013 0.0 -20.45348 0.0 
  1.1306099700927734 -3.0143301391601565 6.611699829101562 6.03008 42.9548 354.537 7.09481 -28.5289 8.60331 -9.37414 42.9439 0.010452 32.0288 51.04 -8.50111 -106.768 -66.8653 -824.702 -108.3528 10.3163 358.905 -19.2954 30.8662 29.7783 0.0 19.4898 0.0 19.1115 -2.15069 19.4727 0.0 0.0 0.0 0.0 0.0 0.0 119.1705 7.61834 -359.793 25.6759 32.6979 -380.254 0.0 19.6672 0.0 6.48586 -9.99348 -18.847 0.0 0.0 0.0 0.0 0.0 0.0 -1.19958 -27.3284 -365.771 0.0 40.5893 0.0 -36.7964 28.944801 14.8651 0.0 -21.08132 0.0 -0.485008 -30.3925 12.3339 0.0 46.4127 0.0 46.9129 29.1658 -15.2646 0.0 -20.69459 0.0 
  1.1300499725341797 -3.0138198852539064 6.611430053710937 6.04385 42.9859 354.507 7.33466 -28.7257 8.95995 -9.66289 43.1129 0.019222 31.7829 51.1134 -7.95985 -106.794 -67.0439 -824.901 -108.2535 10.3073 358.931 -19.4717 30.6731 29.7559 0.0 19.2326 0.0 18.6355 -2.37371 18.0388 0.0 0.0 0.0 0.0 0.0 0.0 119.2395 7.63236 -359.842 25.878 32.6815 -380.236 0.0 19.5172 0.0 6.29553 -9.7775 -20.8883 0.0 0.0 0.0 0.0 0.0 0.0 -1.4511 -27.3701 -366.224 0.0 38.5513 0.0 -37.0593 28.9154 14.5409 0.0 -20.07677 0.0 -0.299302 -30.4779 13.1408 0.0 44.5269 0.0 46.7721 29.2738 -14.9236 0.0 -20.94112 0.0 
  1.1281999969482421 -3.011449890136719 6.611300048828125 6.05661 43.0407 354.447 7.49699 -28.9559 9.20205 -9.86265 43.2692 0.0920177 31.6745 51.2424 -7.66455 -106.679 -67.1623 -824.812 -108.1889 10.3028 358.942 -19.6773 30.4459 29.8686 0.0 18.8435 0.0 18.6965 -2.25782 18.6453 0.0 0.0 0.0 0.0 0.0 0.0 119.311005 7.65924 -359.818 25.9264 32.6213 -380.643 0.0 19.5802 0.0 6.49084 -10.0535 -19.4082 0.0 0.0 0.0 0.0 0.0 0.0 -1.70862 -27.5034 -366.695 0.0 36.735 0.0 -36.1845 29.0122 14.0368 0.0 -21.60304 0.0 -0.0630357 -30.5949 14.0629 0.0 42.5672 0.0 46.8832 29.1232 -14.6886 0.0 -21.03239 0.0 
  1.1262899780273437 -3.0086898803710938 6.610910034179687 6.13614 43.0354 354.332 7.55398 -29.0742 9.37922 -10.0487 43.2943 0.175083 31.6705 51.5618 -7.39903 -106.553 -67.2728 -824.709 -108.2405 10.2713 358.994 -19.7669 30.2232 30.1402 0.0 18.5014 0.0 18.1603 -2.37493 16.6201 0.0 0.0 0.0 0.0 0.0 0.0 119.3563 7.70186 -359.953 26.0071 32.5775 -380.622 0.0 19.5197 0.0 6.65941 -9.92568 -19.7392 0.0 0.0 0.0 0.0 0.0 0.0 -2.03303 -27.5698 -367.176 0.0 34.8894 0.0 -36.0856 28.936699 13.829 0.0 -21.52366 0.0 0.132394 -30.7104 14.9995 0.0 40.6462 0.0 46.6254 28.8608 -14.3952 0.0 -21.08479 0.0 
  1.1238800048828126 -3.004200134277344 6.610700073242188 6.16594 43.0489 354.228 7.66485 -29.1837 9.61583 -10.2334 43.2878 0.242587 31.739 52.1208 -7.09144 -106.746 -67.3038 -825.037 -108.293304 10.2866 359.056 -19.8379 29.9562 30.4063 0.0 18.2069 0.0 17.9575 -2.47957 16.7063 0.0 0.0 0.0 0.0 0.0 0.0 119.4377 7.74044 -359.981 26.1278 32.4506 -380.711 0.0 19.5087 0.0 6.68835 -9.93326 -20.0353 0.0 0.0 0.0 0.0 0.0 0.0 -2.31879 -27.6509 -367.708 0.0 33.0182 0.0 -35.9831 28.85 13.7137 0.0 -21.128689 0.0 0.401173 -30.8812 16.0052 0.0 38.7165 0.0 46.5155 28.4907 -14.2555 0.0 -20.96538 0.0 
  1.1212100219726562 -3.000710144042969 6.611920166015625 6.23225 42.8519 354.16 7.71501 -29.1152 9.83114 -10.468 43.269 0.255862 32.1193 52.4804 -7.26364 -106.633 -67.4023 -824.94 -108.216995 10.2178 359.006 -20.0794 29.7152 30.82 0.0 17.8799 0.0 17.7115 -2.34322 18.1061 0.0 0.0 0.0 0.0 0.0 0.0 119.5936 7.73378 -359.939 26.2886 32.3247 -380.86 0.0 19.5255 0.0 6.89221 -10.0566 -20.0089 0.0 0.0 0.0 0.0 0.0 0.0 -2.7033 -27.5013 -368.466 0.0 31.1062 0.0 -35.6842 28.8095 13.5244 0.0 -20.75668 0.0 0.595494 -30.8778 17.0065 0.0 36.8594 0.0 46.4577 28.1218 -14.0891 0.0 -20.96593 0.0 
  1.1206199645996093 -2.9960400390625 6.616500244140625 6.24119 42.4697 354.063 7.86965 -28.9452 10.125 -10.7039 43.3537 0.215121 32.5018 52.8885 -7.46357 -106.474 -67.4536 -824.801 -108.2025 10.1716 358.989 -20.1782 29.3921 31.093 0.0 17.7117 0.0 17.4575 -2.39669 17.9578 0.0 0.0 0.0 0.0 0.0 0.0 119.765305 7.81052 -360.023 26.3149 32.2141 -380.787 0.0 19.5232 0.0 7.10798 -10.1345 -19.8572 0.0 0.0 0.0 0.0 0.0 0.0 -3.09306 -27.0984 -369.456 0.0 29.1601 0.0 -35.3072 28.6408 13.3003 0.0 -20.53777 0.0 0.80994 -30.6649 18.0335 0.0 34.9613 0.0 46.2479 27.8029 -13.896 0.0 -20.78241 0.0 
  1.121269989013672 -2.987279968261719 6.611279907226563 6.40789 42.7701 353.768 8.11179 -29.2004 10.5994 -11.0756 43.2216 0.220813 33.1354 53.2997 -7.90652 -106.56 -67.5356 -824.805 -108.1466 10.1293 358.994 -20.2476 29.1122 31.1256 0.0 17.5613 0.0 17.2554 -2.42839 18.318 0.0 0.0 0.0 0.0 0.0 0.0 119.9652 7.83455 -360.014 26.3407 32.1044 -381.057 0.0 19.603 0.0 7.21587 -10.1958 -19.6348 0.0 0.0 0.0 0.0 0.0 0.0 -3.53579 -27.5214 -370.512 0.0 27.3384 0.0 -35.0855 28.402401 13.141 0.0 -20.03474 0.0 1.06511 -31.306 19.2765 0.0 33.1766 0.0 45.5541 27.7022 -13.7123 0.0 -20.54964 0.0 
  1.1232599639892578 -2.9787799072265626 6.60698974609375 6.49402 42.8476 353.631 8.39653 -29.2841 11.0811 -11.4476 43.1507 0.0883502 33.8207 53.6283 -8.46483 -106.519 -67.6074 -824.743 -108.065 10.0312 359.003 -20.2303 28.8803 31.3773 0.0 17.5297 0.0 17.096 -2.51833 17.9041 0.0 0.0 0.0 0.0 0.0 0.0 120.218796 7.91915 -360.055 26.3666 32.0119 -380.903 0.0 19.5509 0.0 7.47123 -10.3173 -19.4288 0.0 0.0 0.0 0.0 0.0 0.0 -3.99884 -27.7443 -371.68 0.0 25.505 0.0 -34.7935 28.253101 13.0715 0.0 -19.58788 0.0 1.29249 -31.7176 20.2852 0.0 31.4588 0.0 45.2609 27.5138 -13.6335 0.0 -20.53536 0.0 
  1.1206800079345702 -2.9720700073242186 6.606900024414062 6.57807 43.4185 353.512 8.63169 -30.0285 11.4185 -11.8046 43.2143 0.166127 34.6304 53.907 -9.20202 -106.441 -67.6892 -824.566 -107.9832 9.93958 359.005 -20.1954 28.6897 31.4373 0.0 17.4683 0.0 16.9145 -2.56251 18.0099 0.0 0.0 0.0 0.0 0.0 0.0 120.429596 7.95947 -360.153 26.3318 31.9545 -380.944 0.0 19.5911 0.0 7.39981 -10.2643 -19.8218 0.0 0.0 0.0 0.0 0.0 0.0 -4.29648 -28.4333 -372.401 0.0 23.5956 0.0 -34.851 28.1778 12.8374 0.0 -19.25269 0.0 1.61409 -32.5381 21.2927 0.0 29.708 0.0 44.9666 27.1546 -13.6698 0.0 -20.43663 0.0 
  1.1208799743652345 -2.9656500244140624 6.603499755859375 6.61098 43.3761 353.426 8.78759 -30.1344 11.6768 -12.0259 43.2715 0.15651 35.197 54.0216 -9.81361 -106.073 -67.7172 -824.21 -107.9376 9.88931 358.826 -20.2826 28.4712 31.5144 0.0 17.3708 0.0 16.7748 -2.58827 17.8773 0.0 0.0 0.0 0.0 0.0 0.0 120.5672 8.0395 -360.087 26.4082 31.8071 -380.741 0.0 19.5911 0.0 7.51752 -10.4912 -19.0892 0.0 0.0 0.0 0.0 0.0 0.0 -4.59501 -28.5612 -372.71 0.0 21.7024 0.0 -35.4952 28.0973 12.7787 0.0 -20.372509 0.0 1.80729 -32.8493 21.7954 0.0 28.0871 0.0 44.6682 26.8388 -13.6666 0.0 -20.33649 0.0 
  1.1225 -2.9669699096679687 6.6111297607421875 6.45518 41.7165 353.491 8.73251 -28.8977 11.738 -12.0496 43.4899 -7.00204e-05 35.8976 54.0867 -10.6582 -105.528 -67.7324 -823.585 -107.9037 9.81864 358.764 -20.362 28.282 31.6336 0.0 17.3074 0.0 16.657 -2.71181 17.9429 0.0 0.0 0.0 0.0 0.0 0.0 120.5495 7.99518 -359.962 26.6119 31.6849 -381.052 0.0 19.5695 0.0 7.64174 -10.5244 -18.7548 0.0 0.0 0.0 0.0 0.0 0.0 -4.82438 -26.9538 -372.11 0.0 19.7924 0.0 -34.5931 27.5879 12.3608 0.0 -19.00267 0.0 1.95092 -31.2753 22.5533 0.0 26.2887 0.0 45.578 25.6723 -14.0678 0.0 -20.16583 0.0 
  1.121320037841797 -2.9577801513671873 6.608709716796875 6.15336 41.6754 353.609 9.06865 -29.0498 12.0198 -12.1316 43.7567 -0.0249956 36.3263 54.0018 -11.1519 -105.408 -67.8103 -823.405 -107.8499 9.86665 358.63 -20.3232 28.1696 31.5955 0.0 17.2566 0.0 16.474 -2.67061 17.177 0.0 0.0 0.0 0.0 0.0 0.0 120.6902 8.07227 -359.865 26.4423 31.5526 -381.201 0.0 19.6775 0.0 7.74482 -10.5137 -19.0732 0.0 0.0 0.0 0.0 0.0 0.0 -4.76445 -27.2517 -371.32 0.0 18.1806 0.0 -34.4448 27.5811 11.9897 0.0 -19.197319 0.0 2.38819 -31.4747 22.3197 0.0 24.4461 0.0 47.3085 24.88316 -15.0339 0.0 -20.19601 0.0 
  1.1254100036621093 -2.951960144042969 6.603610229492188 6.2682 41.6192 353.505 9.15752 -29.0225 12.238 -12.3331 43.7012 -0.0854261 36.596 54.1117 -11.3341 -105.35 -67.8819 -823.368 -107.793 9.80992 358.321 -20.4508 28.0247 31.9362 0.0 17.1399 0.0 16.6896 -2.94049 18.3197 0.0 0.0 0.0 0.0 0.0 0.0 120.802704 8.08173 -359.79 26.4862 31.44 -381.182 0.0 19.5981 0.0 7.79191 -10.6141 -19.212 0.0 0.0 0.0 0.0 0.0 0.0 -5.03069 -27.5814 -370.163 0.0 16.5889 0.0 -33.8624 27.9956 11.6665 0.0 -20.13142 0.0 2.18953 -31.8889 20.9231 0.0 23.0006 0.0 46.8185 24.88264 -14.3997 0.0 -19.60031 0.0 
  1.1262899780273437 -2.9481500244140624 6.59625 6.30961 41.6767 353.465 9.09717 -29.0486 12.2354 -12.336 43.5469 -0.0404423 36.5295 54.1301 -11.179 -105.232 -67.9841 -823.217 -107.7728 9.8363 358.327 -20.5083 27.9904 31.7462 0.0 16.9963 0.0 16.6176 -2.89919 18.3696 0.0 0.0 0.0 0.0 0.0 0.0 120.829 8.02246 -359.697 26.5634 31.3538 -381.105 0.0 19.4693 0.0 7.78965 -10.6376 -19.5225 0.0 0.0 0.0 0.0 0.0 0.0 -5.29748 -28.1861 -369.309 0.0 15.3944 0.0 -34.8905 27.7987 11.6776 0.0 -20.58948 0.0 2.29629 -32.4444 20.5627 0.0 21.707 0.0 46.9139 24.47387 -14.3423 0.0 -19.66744 0.0 
  1.1265899658203125 -2.943280029296875 6.58739990234375 6.17665 41.7764 353.491 9.14108 -29.0204 12.2657 -12.2595 43.3809 -0.117059 35.976 54.2122 -10.3689 -105.193 -68.1494 -823.135 -107.7149 9.79652 358.19 -20.5815 27.9299 31.9376 0.0 16.9736 0.0 16.5115 -2.97629 17.3409 0.0 0.0 0.0 0.0 0.0 0.0 120.8425 8.02201 -359.623 26.5916 31.2947 -381.222 0.0 19.3833 0.0 7.78323 -10.6567 -19.9196 0.0 0.0 0.0 0.0 0.0 0.0 -5.51187 -29.05 -368.831 0.0 14.6933 0.0 -36.0765 27.114601 11.9587 0.0 -20.36341 0.0 2.6257 -33.1152 20.0546 0.0 20.6053 0.0 46.8851 24.18322 -14.4032 0.0 -19.73668 0.0 
  1.1261499786376954 -2.9394400024414065 6.579520263671875 6.18091 41.8626 353.473 9.00111 -28.9419 12.1613 -12.1782 43.0825 -0.164686 35.0565 54.3905 -9.05494 -104.911 -68.3507 -822.954 -107.7014 9.85034 358.216 -20.5811 27.8145 31.8388 0.0 16.9032 0.0 16.451 -2.99699 18.0997 0.0 0.0 0.0 0.0 0.0 0.0 120.816605 7.97114 -359.611 26.6797 31.2801 -381.451 0.0 19.281 0.0 7.85162 -10.7424 -19.8109 0.0 0.0 0.0 0.0 0.0 0.0 -5.78885 -29.9382 -368.7 0.0 14.0766 0.0 -35.6351 27.1133 12.0104 0.0 -20.616371 0.0 2.93554 -33.8846 20.0408 0.0 19.8363 0.0 46.65 23.843029 -14.4981 0.0 -19.54833 0.0 
